<?xml version="1.0" encoding="utf-8"?>
<svg width="32" height="32" viewBox="0 0 32 32" fill="none" xmlns="http://www.w3.org/2000/svg">
    <path d="M27.5827 4.22559L17.5732 11.0574L19.2261 7.08071L27.5827 4.22559Z" fill="#E17726" stroke="#E17726" stroke-width="0.25" stroke-linecap="round" stroke-linejoin="round"/>
    <path d="M4.41797 4.22559L14.3379 11.1266L12.7745 7.08071L4.41797 4.22559Z" fill="#E27625" stroke="#E27625" stroke-width="0.25" stroke-linecap="round" stroke-linejoin="round"/>
    <path d="M24.0461 21.7988L21.4512 26.0758L27.0602 27.6392L28.6237 21.8681L24.0461 21.7988Z" fill="#E27625" stroke="#E27625" stroke-width="0.25" stroke-linecap="round" stroke-linejoin="round"/>
    <path d="M3.38672 21.8681L4.95018 27.6392L10.5592 26.0758L7.96433 21.7988L3.38672 21.8681Z" fill="#E27625" stroke="#E27625" stroke-width="0.25" stroke-linecap="round" stroke-linejoin="round"/>
    <path d="M10.2821 14.6743L8.86523 17.1999L14.4049 17.4771L14.2664 11.4731L10.2821 14.6743Z" fill="#E27625" stroke="#E27625" stroke-width="0.25" stroke-linecap="round" stroke-linejoin="round"/>
    <path d="M21.7188 14.6741L17.6652 11.4037L17.5959 17.4769L23.1356 17.1997L21.7188 14.6741Z" fill="#E27625" stroke="#E27625" stroke-width="0.25" stroke-linecap="round" stroke-linejoin="round"/>
    <path d="M10.5586 26.0757L14.1285 24.3738L11.0657 21.9175L10.5586 26.0757Z" fill="#E27625" stroke="#E27625" stroke-width="0.25" stroke-linecap="round" stroke-linejoin="round"/>
    <path d="M17.8711 24.3738L21.441 26.0757L20.9339 21.9175L17.8711 24.3738Z" fill="#E27625" stroke="#E27625" stroke-width="0.25" stroke-linecap="round" stroke-linejoin="round"/>
    <path d="M21.441 26.0759L17.8711 24.374L18.1483 26.6918L18.1137 27.5704L21.441 26.0759Z" fill="#D5BFB2" stroke="#D5BFB2" stroke-width="0.25" stroke-linecap="round" stroke-linejoin="round"/>
    <path d="M10.5586 26.0759L13.8859 27.5704L13.8628 26.6918L14.1285 24.374L10.5586 26.0759Z" fill="#D5BFB2" stroke="#D5BFB2" stroke-width="0.25" stroke-linecap="round" stroke-linejoin="round"/>
    <path d="M13.9553 20.3126L10.9961 19.434L13.0777 18.494L13.9553 20.3126Z" fill="#233447" stroke="#233447" stroke-width="0.25" stroke-linecap="round" stroke-linejoin="round"/>
    <path d="M18.0449 20.3126L18.9225 18.494L21.0156 19.434L18.0449 20.3126Z" fill="#233447" stroke="#233447" stroke-width="0.25" stroke-linecap="round" stroke-linejoin="round"/>
    <path d="M10.5595 26.0758L11.0897 21.7988L7.96484 21.8681L10.5595 26.0758Z" fill="#CC6228" stroke="#CC6228" stroke-width="0.25" stroke-linecap="round" stroke-linejoin="round"/>
    <path d="M20.9102 21.7988L21.4403 26.0758L24.035 21.8681L20.9102 21.7988Z" fill="#CC6228" stroke="#CC6228" stroke-width="0.25" stroke-linecap="round" stroke-linejoin="round"/>
    <path d="M23.1353 17.1997L17.5957 17.4769L18.0451 20.3126L18.9227 18.494L21.0158 19.434L23.1353 17.1997Z" fill="#CC6228" stroke="#CC6228" stroke-width="0.25" stroke-linecap="round" stroke-linejoin="round"/>
    <path d="M10.9967 19.434L13.0898 18.494L13.9559 20.3126L14.4053 17.4769L8.86572 17.1997L10.9967 19.434Z" fill="#CC6228" stroke="#CC6228" stroke-width="0.25" stroke-linecap="round" stroke-linejoin="round"/>
    <path d="M8.86523 17.1997L11.0655 21.9175L10.9962 19.434L8.86523 17.1997Z" fill="#E27525" stroke="#E27525" stroke-width="0.25" stroke-linecap="round" stroke-linejoin="round"/>
    <path d="M21.0155 19.434L20.9346 21.9175L23.1349 17.1997L21.0155 19.434Z" fill="#E27525" stroke="#E27525" stroke-width="0.25" stroke-linecap="round" stroke-linejoin="round"/>
    <path d="M14.4043 17.4769L13.9549 20.3126L14.5197 23.5138L14.6121 18.9319L14.4043 17.4769Z" fill="#E27525" stroke="#E27525" stroke-width="0.25" stroke-linecap="round" stroke-linejoin="round"/>
    <path d="M17.5947 17.4769L17.3984 18.9204L17.4793 23.5138L18.0441 20.3126L17.5947 17.4769Z" fill="#E27525" stroke="#E27525" stroke-width="0.25" stroke-linecap="round" stroke-linejoin="round"/>
    <path d="M18.0444 20.3127L17.4795 23.5139L17.8721 24.3739L20.9349 21.9176L21.0158 19.4341L18.0444 20.3127Z" fill="#F5841F" stroke="#F5841F" stroke-width="0.25" stroke-linecap="round" stroke-linejoin="round"/>
    <path d="M10.9961 19.4341L11.0654 21.9176L14.1282 24.3739L14.5208 23.5139L13.9559 20.3127L10.9961 19.4341Z" fill="#F5841F" stroke="#F5841F" stroke-width="0.25" stroke-linecap="round" stroke-linejoin="round"/>
    <path d="M18.1143 27.5704L18.1489 26.6918L17.8948 26.4725H14.1055L13.8628 26.6918L13.8859 27.5704L10.5586 26.0759L11.6209 26.9545L14.0593 28.6564H17.9294L20.3793 26.9545L21.4416 26.0759L18.1143 27.5704Z" fill="#C0AC9D" stroke="#C0AC9D" stroke-width="0.25" stroke-linecap="round" stroke-linejoin="round"/>
    <path d="M17.8714 24.3738L17.4788 23.5137H14.5198L14.1272 24.3738L13.8615 26.6916L14.1042 26.4723H17.8935L18.1476 26.6916L17.8714 24.3738Z" fill="#161616" stroke="#161616" stroke-width="0.25" stroke-linecap="round" stroke-linejoin="round"/>
    <path d="M27.9291 11.7503L28.7154 7.88966L27.5839 4.22559L17.8711 10.9189L21.7185 14.6745L26.9129 16.2379L28.0445 14.9295L27.5374 14.5715L28.3237 13.8467L27.7012 13.3858L28.4875 12.7726L27.9291 11.7503Z" fill="#763E1A" stroke="#763E1A" stroke-width="0.25" stroke-linecap="round" stroke-linejoin="round"/>
    <path d="M3.28516 7.88966L4.07143 11.7503L3.50457 12.7726L4.29085 13.3858L3.66838 13.8467L4.45466 14.5715L3.94756 14.9295L5.07916 16.2379L10.2736 14.6745L14.121 10.9189L4.40818 4.22559L3.28516 7.88966Z" fill="#763E1A" stroke="#763E1A" stroke-width="0.25" stroke-linecap="round" stroke-linejoin="round"/>
    <path d="M26.9129 16.2379L21.7184 14.6745L23.1352 17.1997L20.9349 21.9175L24.0366 21.8682H28.6142L26.9129 16.2379Z" fill="#F5841F" stroke="#F5841F" stroke-width="0.25" stroke-linecap="round" stroke-linejoin="round"/>
    <path d="M10.2744 14.6745L5.07993 16.2379L3.38672 21.8682H7.96433L11.0661 21.9175L8.86573 17.1997L10.2744 14.6745Z" fill="#F5841F" stroke="#F5841F" stroke-width="0.25" stroke-linecap="round" stroke-linejoin="round"/>
    <path d="M17.5959 17.4769L17.8721 10.9189L19.2274 7.08071H12.7744L14.1297 10.9189L14.4059 17.4769L14.5098 18.9434L14.5213 23.5138H17.4803L17.4918 18.9434L17.5959 17.4769Z" fill="#F5841F" stroke="#F5841F" stroke-width="0.25" stroke-linecap="round" stroke-linejoin="round"/>
</svg>
